<svg width="512" height="512" viewBox="0 0 512 512" style="color:currentColor" xmlns="http://www.w3.org/2000/svg" class="h-full w-full"><rect width="512" height="512" x="0" y="0" rx="30" fill="transparent" stroke="transparent" stroke-width="0" stroke-opacity="100%" paint-order="stroke"></rect><svg width="256px" height="256px" viewBox="0 0 16 16" fill="currentColor" x="128" y="128" role="img" style="display:inline-block;vertical-align:middle" xmlns="http://www.w3.org/2000/svg"><g fill="currentColor"><path fill="currentColor" d="M14.25 1.5H1.75A1.25 1.25 0 0 0 .5 2.75v7.5a1.25 1.25 0 0 0 1.25 1.25H6.1v1.75H4v1.25h8v-1.25H9.91V11.5h4.34a1.25 1.25 0 0 0 1.25-1.25v-7.5a1.25 1.25 0 0 0-1.25-1.25zM8.66 13.25H7.35V11.5h1.31zm5.59-3H1.75v-7.5h12.5z"/></g></svg></svg>