<svg width="512" height="512" viewBox="0 0 512 512" style="color:#1C2033" xmlns="http://www.w3.org/2000/svg" class="h-full w-full"><rect width="512" height="512" x="0" y="0" rx="30" fill="transparent" stroke="transparent" stroke-width="0" stroke-opacity="100%" paint-order="stroke"></rect><svg width="256px" height="256px" viewBox="0 0 32 32" fill="#1C2033" x="128" y="128" role="img" style="display:inline-block;vertical-align:middle" xmlns="http://www.w3.org/2000/svg"><g fill="#1C2033"><path fill="currentColor" d="M2 22h28v2H2zm0 4h28v2H2zm22-16a2 2 0 1 0 2 2a2 2 0 0 0-2-2zm-8 6a4 4 0 1 1 4-4a4.005 4.005 0 0 1-4 4zm0-6a2 2 0 1 0 2 2a2.002 2.002 0 0 0-2-2zm-8 0a2 2 0 1 0 2 2a2 2 0 0 0-2-2z"/><path fill="currentColor" d="M28 20H4a2.005 2.005 0 0 1-2-2V6a2.005 2.005 0 0 1 2-2h24a2.005 2.005 0 0 1 2 2v12a2.003 2.003 0 0 1-2 2Zm0-14H4v12h24Z"/></g></svg></svg>