<svg xmlns="http://www.w3.org/2000/svg" viewBox="0 0 24 24" width="24" height="24">
    <g id="airplane">
        <path d="M1.444,6.669a2,2,0,0,0-.865,3.337l3.412,3.408V20h6.593l3.435,3.43a1.987,1.987,0,0,0,1.408.588,2.034,2.034,0,0,0,.51-.066,1.978,1.978,0,0,0,1.42-1.379L23.991.021ZM2,8.592l17.028-5.02L5.993,16.586v-4Zm13.44,13.424L11.413,18h-4L20.446,4.978Z" />
    </g>

    <g id='smile'>
        <path d="M12,24A12,12,0,1,1,24,12,12.013,12.013,0,0,1,12,24ZM12,2A10,10,0,1,0,22,12,10.011,10.011,0,0,0,12,2Zm5.666,13.746a1,1,0,0,0-1.33-1.494A7.508,7.508,0,0,1,12,16a7.509,7.509,0,0,1-4.334-1.746,1,1,0,0,0-1.332,1.492A9.454,9.454,0,0,0,12,18,9.454,9.454,0,0,0,17.666,15.746ZM6,10c0,1,.895,1,2,1s2,0,2-1a2,2,0,0,0-4,0Zm8,0c0,1,.895,1,2,1s2,0,2-1a2,2,0,0,0-4,0Z"/>
    </g>

    <g id="lamp">
        <path d="m17.994 2.286a9 9 0 0 0 -14.919 5.536 8.938 8.938 0 0 0 2.793 7.761 6.263 6.263 0 0 1 2.132 4.566v.161a3.694 3.694 0 0 0 3.69 3.69h.62a3.694 3.694 0 0 0 3.69-3.69v-.549a5.323 5.323 0 0 1 1.932-4 8.994 8.994 0 0 0 .062-13.477zm-5.684 19.714h-.62a1.692 1.692 0 0 1 -1.69-1.69s-.007-.26-.008-.31h4.008v.31a1.692 1.692 0 0 1 -1.69 1.69zm4.3-7.741a7.667 7.667 0 0 0 -2.364 3.741h-1.246v-7.184a3 3 0 0 0 2-2.816 1 1 0 0 0 -2 0 1 1 0 0 1 -2 0 1 1 0 0 0 -2 0 3 3 0 0 0 2 2.816v7.184h-1.322a8.634 8.634 0 0 0 -2.448-3.881 7 7 0 0 1 3.951-12.073 7.452 7.452 0 0 1 .828-.046 6.921 6.921 0 0 1 4.652 1.778 6.993 6.993 0 0 1 -.048 10.481z"/>
    </g>


</svg>