<svg xmlns="http://www.w3.org/2000/svg" viewBox="0 0 24 24" width="24" height="24">
    <path id='star'
        d="M23.836,8.794a3.179,3.179,0,0,0-3.067-2.226H16.4L15.073,2.432a3.227,3.227,0,0,0-6.146,0L7.6,6.568H3.231a3.227,3.227,0,0,0-1.9,5.832L4.887,15,3.535,19.187A3.178,3.178,0,0,0,4.719,22.8a3.177,3.177,0,0,0,3.8-.019L12,20.219l3.482,2.559a3.227,3.227,0,0,0,4.983-3.591L19.113,15l3.56-2.6A3.177,3.177,0,0,0,23.836,8.794Zm-2.343,1.991-4.144,3.029a1,1,0,0,0-.362,1.116L18.562,19.8a1.227,1.227,0,0,1-1.895,1.365l-4.075-3a1,1,0,0,0-1.184,0l-4.075,3a1.227,1.227,0,0,1-1.9-1.365L7.013,14.93a1,1,0,0,0-.362-1.116L2.507,10.785a1.227,1.227,0,0,1,.724-2.217h5.1a1,1,0,0,0,.952-.694l1.55-4.831a1.227,1.227,0,0,1,2.336,0l1.55,4.831a1,1,0,0,0,.952.694h5.1a1.227,1.227,0,0,1,.724,2.217Z" />

    <g id='fire'>
        <path
            d="M8 18C8 20.4148 9.79086 21 12 21C15.7587 21 17 18.5 14.5 13.5C11 18 10.5 11 11 9C9.5 12 8 14.8177 8 18Z">
        </path>
        <path
            d="M12 21C17.0495 21 20 18.0956 20 13.125C20 8.15444 12 3 12 3C12 3 4 8.15444 4 13.125C4 18.0956 6.95054 21 12 21Z">
        </path>
    </g>

    <g id='book'>
        <path
            d="M20.137,24a2.8,2.8,0,0,1-1.987-.835L12,17.051,5.85,23.169a2.8,2.8,0,0,1-3.095.609A2.8,2.8,0,0,1,1,21.154V5A5,5,0,0,1,6,0H18a5,5,0,0,1,5,5V21.154a2.8,2.8,0,0,1-1.751,2.624A2.867,2.867,0,0,1,20.137,24ZM6,2A3,3,0,0,0,3,5V21.154a.843.843,0,0,0,1.437.6h0L11.3,14.933a1,1,0,0,1,1.41,0l6.855,6.819a.843.843,0,0,0,1.437-.6V5a3,3,0,0,0-3-3Z" />
    </g>
</svg>